<svg width="225" height="82" viewBox="0 0 225 82" fill="none" xmlns="http://www.w3.org/2000/svg">
<g clip-path="url(#clip0_777_3831)">
<ellipse cx="30.0467" cy="20.6185" rx="8.21726" ry="8.21726" transform="rotate(150 30.0467 20.6185)" fill="#0F172A"/>
<path d="M77.1491 37.9036C77.5221 38.5496 77.3007 39.3758 76.6546 39.7488C76.0086 40.1218 75.1824 39.9005 74.8094 39.2544L73.6639 37.2704C74.023 37.8923 73.8099 38.6876 73.188 39.0466C72.5667 39.4054 71.7722 39.1931 71.4126 38.5723L67.5497 31.9033L67.5385 31.9098C66.8131 30.6535 65.9921 29.4665 65.0863 28.3571L67.7132 32.907C68.0723 33.529 67.8592 34.3243 67.2372 34.6834C66.6159 35.0421 65.8215 34.8299 65.4618 34.2092L62.0043 28.242C61.8424 27.8139 61.7038 27.3657 61.5648 26.9162C61.145 25.5587 60.7215 24.1891 59.6429 23.3253C59.6035 23.2937 59.5642 23.2626 59.5253 23.2319C59.2899 23.0698 59.0519 22.9114 58.8113 22.7568L64.1743 13.5596C69.323 16.78 73.6604 21.2346 76.7524 26.5902L79.4315 31.2305C79.7921 31.8551 79.5781 32.6537 78.9536 33.0142C78.329 33.3748 77.5304 33.1608 77.1698 32.5363L78.7683 35.3049C79.1413 35.951 78.92 36.7771 78.2739 37.1502C77.6278 37.5232 76.8016 37.3018 76.4286 36.6557L77.1491 37.9036Z" fill="#2F89FC"/>
<path d="M62.1513 12.3806L56.7883 21.578C55.0422 20.6602 53.1869 19.9309 51.2513 19.4122C47.7746 18.4807 44.1829 18.2672 40.6845 18.7442C40.4727 17.5278 40.0473 16.3272 39.394 15.1956C37.7369 12.3254 34.962 10.503 31.9367 9.96069C38.9924 7.49209 46.6816 7.17313 54.0049 9.13539C56.8615 9.90083 59.5928 10.9947 62.1513 12.3806Z" fill="#2F89FC"/>
<path d="M20.6766 26.0021C21.3299 27.1337 22.157 28.1024 23.1046 28.894C20.9423 31.6851 19.3313 34.9025 18.3997 38.3791C16.5585 45.2506 17.5224 52.5721 21.0794 58.733L11.8654 64.0527C6.89756 55.4481 5.55133 45.2225 8.12287 35.6254C10.0851 28.3021 14.206 21.8025 19.8717 16.9264C18.8287 19.8176 19.0195 23.1319 20.6766 26.0021Z" fill="#2F89FC"/>
<path d="M21.9285 58.2177L21.9277 58.2162L21.9053 58.1776L21.4088 57.3193L21.3971 57.3261L18.0309 51.5146C17.3968 50.4199 15.9958 50.0456 14.9002 50.6781C14.8099 50.7303 14.7244 50.7877 14.644 50.8497L14.6348 50.8338C13.9877 49.7129 12.5544 49.3289 11.4336 49.976C10.5709 50.474 10.1447 51.4376 10.2891 52.3662C10.1269 52.4169 9.96766 52.4861 9.81431 52.5746C8.69344 53.2218 8.3094 54.655 8.95653 55.7759L9.41634 56.5723C9.3207 56.6114 9.22658 56.6574 9.1346 56.7105C8.88973 56.8519 8.59695 57.1249 8.40442 57.3187C8.29279 57.4311 8.17964 57.5527 8.08162 57.6695C8.00097 57.7657 7.87207 57.9263 7.78676 58.1026L7.60413 58.4799L7.74725 58.8739C8.15314 59.9914 8.71972 60.964 9.29787 61.8684C9.49555 62.1776 9.68997 62.4724 9.88094 62.7619C10.2666 63.3466 10.6382 63.9099 10.994 64.528L10.9955 64.5306L11.0184 64.5701L11.5154 65.4274L12.3736 64.9319L21.5874 59.6123L22.4464 59.1164L21.9512 58.257L21.9285 58.2177Z" fill="white" stroke="white" stroke-width="1.98535"/>
<path d="M11.9296 50.836C11.2836 51.209 11.0622 52.0351 11.4352 52.6812L12.1557 53.929C11.7826 53.283 10.9565 53.0616 10.3104 53.4346C9.66432 53.8076 9.44296 54.6338 9.81597 55.2798L11.4144 58.0485C11.0539 57.4239 10.2552 57.2099 9.6307 57.5705C9.00615 57.9311 8.79217 58.7297 9.15275 59.3542L11.8319 63.9946C15.1108 69.6738 19.7901 74.3398 25.3523 77.5954L30.7116 68.4044C30.1477 68.0739 29.5965 67.7231 29.059 67.3528C29.02 67.3221 28.9808 67.291 28.9414 67.2595C27.8628 66.3956 27.4393 65.026 27.0195 63.6686C26.8805 63.2191 26.7419 62.7709 26.58 62.3428L23.1224 56.3756C22.7628 55.7549 21.9684 55.5427 21.3471 55.9014C20.7251 56.2605 20.512 57.0558 20.8711 57.6778L23.498 62.2277C22.5922 61.1182 21.7711 59.9312 21.0458 58.6749L21.0346 58.6814L17.1717 52.0125C16.8121 51.3917 16.0176 51.1794 15.3963 51.5381C14.7744 51.8972 14.5613 52.6925 14.9204 53.3144L13.7749 51.3304C13.4019 50.6843 12.5757 50.4629 11.9296 50.836Z" fill="#0F172A"/>
<path d="M32.7831 69.5L27.4099 78.7149C29.6829 79.861 32.0833 80.7805 34.5794 81.4494C41.9027 83.4116 49.5919 83.0927 56.6476 80.6241C53.6223 80.0818 50.8473 78.2593 49.1903 75.3892C48.5369 74.2576 48.1115 73.057 47.8998 71.8405C44.4014 72.3176 40.8096 72.1041 37.333 71.1725C35.758 70.7505 34.2362 70.189 32.7831 69.5Z" fill="#0F172A"/>
<path d="M65.4797 61.6908C66.4273 62.4824 67.2544 63.4511 67.9077 64.5827C69.5648 67.4528 69.7556 70.7672 68.7126 73.6584C74.3783 68.7823 78.4991 62.2827 80.4614 54.9594C82.4625 47.4913 82.0912 39.6425 79.4872 32.4733C79.3772 32.7006 79.2002 32.8984 78.9651 33.0341C78.3405 33.3947 77.5419 33.1807 77.1814 32.5562L78.7798 35.3248C79.1528 35.9709 78.9315 36.797 78.2854 37.1701C77.6393 37.5431 76.8132 37.3217 76.4401 36.6756L77.1606 37.9235C77.5336 38.5695 77.3122 39.3957 76.6661 39.7687C76.0201 40.1417 75.1939 39.9204 74.8209 39.2743L73.6754 37.2903C74.0345 37.9122 73.8214 38.7075 73.1995 39.0665C72.5782 39.4253 71.7837 39.213 71.4241 38.5922L67.5612 31.9233L67.55 31.9297C67.5425 31.9167 67.535 31.9037 67.5274 31.8908C67.5219 31.8812 67.5164 31.8716 67.5108 31.862L67.5049 31.8518C71.0619 38.0126 72.0258 45.3341 70.1846 52.2057C69.253 55.6823 67.642 58.8996 65.4797 61.6908Z" fill="#0F172A"/>
<path d="M67.1992 33.2782L66.7024 32.4206L67.5502 31.9295L67.5502 31.9295L67.1992 33.2782ZM67.1992 33.2782L67.1867 33.2854L66.6905 32.4259L66.6689 32.3885L66.667 32.3853L66.6671 32.3853L66.6455 32.3479L66.1491 31.4882L67.0088 30.9919L76.2227 25.6722L77.0802 25.1772L77.5774 26.0334L77.6007 26.0736L77.6019 26.0756C77.999 26.7654 78.4547 27.3723 78.9449 28.0251C79.0832 28.2092 79.2241 28.397 79.3673 28.5913C79.9976 29.4466 80.6424 30.3959 81.0616 31.5503L81.2048 31.9443L81.0297 32.3059C81.0275 32.3118 81.0221 32.3259 81.0126 32.3521C81.0096 32.3604 81.0062 32.3698 81.0024 32.3801C80.9862 32.4248 80.9638 32.4867 80.9394 32.5502C80.8791 32.707 80.7857 32.9308 80.6481 33.1518C80.5142 33.3669 80.2985 33.6448 79.9646 33.8373C79.7307 33.9722 79.4686 34.0475 79.1922 34.0531L79.6397 34.8283C80.2868 35.9491 79.9028 37.3824 78.7819 38.0295C78.6286 38.1181 78.4694 38.1873 78.3072 38.238C78.4515 39.1665 78.0253 40.1302 77.1627 40.6282C76.0418 41.2753 74.6086 40.8913 73.9614 39.7704L73.9522 39.7545C73.8718 39.8165 73.7864 39.8739 73.696 39.926C72.6004 40.5586 71.1995 40.1843 70.5654 39.0895L67.1992 33.2782Z" fill="white" stroke="white" stroke-width="1.98535"/>
<path d="M58.8229 22.7763C59.0634 22.9309 59.3014 23.0893 59.5368 23.2515C59.5758 23.2821 59.615 23.3133 59.6544 23.3448C60.733 24.2087 61.1565 25.5783 61.5763 26.9357C61.7153 27.3852 61.854 27.8334 62.0158 28.2615L65.4734 34.2287C65.833 34.8494 66.6275 35.0616 67.2488 34.7029C67.8707 34.3438 68.0838 33.5485 67.7247 32.9265L65.0979 28.3766C66.0037 29.486 66.8247 30.6731 67.55 31.9294L67.5612 31.9229L71.4242 38.5918C71.7838 39.2126 72.5782 39.4249 73.1995 39.0662C73.8214 38.7071 74.0345 37.9118 73.6755 37.2899L74.8209 39.2739C75.1939 39.92 76.0201 40.1413 76.6662 39.7683C77.3123 39.3953 77.5336 38.5692 77.1606 37.9231L76.4402 36.6753C76.8132 37.3213 77.6393 37.5427 78.2854 37.1697C78.9315 36.7967 79.1529 35.9705 78.7798 35.3244L77.1814 32.5558C77.542 33.1804 78.3406 33.3944 78.9651 33.0338C79.5897 32.6732 79.8037 31.8746 79.4431 31.25L76.764 26.6097C73.8662 21.5906 69.8746 17.3629 65.1465 14.2006L61.9347 17.4397L58.8229 22.7763Z" fill="#2F89FC"/>
<ellipse cx="58.5489" cy="69.9858" rx="8.31139" ry="8.31139" transform="rotate(-30 58.5489 69.9858)" fill="#2F89FC"/>
<path d="M99.0499 50.45C96.9299 50.45 95.3899 49.65 94.4299 48.05H94.3699V50H90.6799V29H94.3699V38.09H94.4299C95.3899 36.49 96.9299 35.69 99.0499 35.69C100.95 35.69 102.53 36.35 103.79 37.67C105.07 38.99 105.71 40.79 105.71 43.07C105.71 45.35 105.07 47.15 103.79 48.47C102.53 49.79 100.95 50.45 99.0499 50.45ZM95.3899 45.89C96.0899 46.61 96.9999 46.97 98.1199 46.97C99.2399 46.97 100.14 46.61 100.82 45.89C101.52 45.17 101.87 44.23 101.87 43.07C101.87 41.91 101.52 40.97 100.82 40.25C100.14 39.53 99.2399 39.17 98.1199 39.17C96.9999 39.17 96.0899 39.53 95.3899 40.25C94.7099 40.97 94.3699 41.91 94.3699 43.07C94.3699 44.23 94.7099 45.17 95.3899 45.89Z" fill="#00204A"/>
<path d="M116.54 35.72V39.68H116.12C114.62 39.68 113.52 40.04 112.82 40.76C112.12 41.48 111.77 42.67 111.77 44.33V50H108.11V36.14H111.74V39.08H111.8C112.54 36.84 114.07 35.72 116.39 35.72H116.54Z" fill="#00204A"/>
<path d="M122.472 29.18V33.23H118.272V29.18H122.472ZM118.512 50V36.14H122.202V50H118.512Z" fill="#00204A"/>
<path d="M131.362 50.45C129.462 50.45 127.872 49.79 126.592 48.47C125.332 47.15 124.702 45.35 124.702 43.07C124.702 40.79 125.332 38.99 126.592 37.67C127.872 36.35 129.462 35.69 131.362 35.69C133.482 35.69 135.022 36.49 135.982 38.09H136.042V29H139.702V50H136.042V48.05H135.982C135.022 49.65 133.482 50.45 131.362 50.45ZM129.562 45.89C130.262 46.61 131.172 46.97 132.292 46.97C133.412 46.97 134.312 46.61 134.992 45.89C135.692 45.17 136.042 44.23 136.042 43.07C136.042 41.91 135.692 40.97 134.992 40.25C134.312 39.53 133.412 39.17 132.292 39.17C131.172 39.17 130.262 39.53 129.562 40.25C128.882 40.97 128.542 41.91 128.542 43.07C128.542 44.23 128.882 45.17 129.562 45.89Z" fill="#00204A"/>
<path d="M150.232 56.45C148.732 56.45 146.852 56.23 144.592 55.79L145.252 52.28C147.172 52.74 148.782 52.97 150.082 52.97C151.342 52.97 152.232 52.7 152.752 52.16C153.272 51.64 153.532 50.7 153.532 49.34V48.05H153.472C152.432 49.59 150.882 50.36 148.822 50.36C146.922 50.36 145.342 49.71 144.082 48.41C142.822 47.11 142.192 45.33 142.192 43.07C142.192 40.79 142.822 38.99 144.082 37.67C145.362 36.35 146.952 35.69 148.852 35.69C150.972 35.69 152.512 36.49 153.472 38.09H153.532V36.14H157.192V50C157.172 52.34 156.562 54 155.362 54.98C154.162 55.96 152.452 56.45 150.232 56.45ZM147.052 45.89C147.752 46.61 148.662 46.97 149.782 46.97C150.902 46.97 151.802 46.61 152.482 45.89C153.182 45.17 153.532 44.23 153.532 43.07C153.532 41.91 153.182 40.97 152.482 40.25C151.802 39.53 150.902 39.17 149.782 39.17C148.662 39.17 147.752 39.53 147.052 40.25C146.372 40.97 146.032 41.91 146.032 43.07C146.032 44.23 146.372 45.17 147.052 45.89Z" fill="#00204A"/>
<path d="M166.736 35.69C168.856 35.69 170.506 36.34 171.686 37.64C172.866 38.92 173.456 40.74 173.456 43.1V43.82H163.106C163.206 44.88 163.606 45.71 164.306 46.31C165.026 46.89 165.926 47.18 167.006 47.18C168.506 47.18 169.886 46.55 171.146 45.29L173.006 47.96C171.206 49.62 169.206 50.45 167.006 50.45C164.746 50.45 162.936 49.78 161.576 48.44C160.216 47.1 159.536 45.32 159.536 43.1C159.536 40.88 160.196 39.09 161.516 37.73C162.836 36.37 164.576 35.69 166.736 35.69ZM166.556 38.66C164.616 38.66 163.496 39.59 163.196 41.45H169.736C169.676 40.57 169.356 39.89 168.776 39.41C168.216 38.91 167.476 38.66 166.556 38.66Z" fill="#00204A"/>
<path d="M179.899 29V50H176.029V29H179.899Z" fill="#2F89FC"/>
<path d="M191.711 35.69C193.311 35.69 194.581 36.17 195.521 37.13C196.461 38.07 196.931 39.51 196.931 41.45V50H193.241V42.32C193.241 40.18 192.291 39.11 190.391 39.11C188.231 39.11 187.151 40.48 187.151 43.22V50H183.491V36.14H187.121V38.24H187.181C188.181 36.54 189.691 35.69 191.711 35.69Z" fill="#2F89FC"/>
<path d="M207.171 39.23H204.321V45.05C204.321 45.61 204.431 46.01 204.651 46.25C204.871 46.49 205.251 46.61 205.791 46.61H206.421V50.03H204.801C203.461 50.03 202.431 49.69 201.711 49.01C200.991 48.31 200.631 47.28 200.631 45.92V39.23H198.081V36.14H200.631V30.59H204.321V36.14H207.171V39.23Z" fill="#2F89FC"/>
<path d="M210.124 37.76C211.584 36.38 213.424 35.69 215.644 35.69C217.864 35.69 219.694 36.38 221.134 37.76C222.594 39.14 223.324 40.91 223.324 43.07C223.324 45.23 222.594 47 221.134 48.38C219.694 49.76 217.864 50.45 215.644 50.45C213.424 50.45 211.584 49.76 210.124 48.38C208.684 47 207.964 45.23 207.964 43.07C207.964 40.91 208.684 39.14 210.124 37.76ZM218.434 40.25C217.714 39.53 216.784 39.17 215.644 39.17C214.504 39.17 213.564 39.53 212.824 40.25C212.104 40.95 211.744 41.89 211.744 43.07C211.744 44.25 212.104 45.2 212.824 45.92C213.564 46.62 214.504 46.97 215.644 46.97C216.784 46.97 217.714 46.62 218.434 45.92C219.154 45.2 219.514 44.25 219.514 43.07C219.514 41.89 219.154 40.95 218.434 40.25Z" fill="#2F89FC"/>
</g>
<defs>
<clipPath id="clip0_777_3831">
<rect width="224" height="82" fill="white" transform="translate(0.5)"/>
</clipPath>
</defs>
</svg>
