<svg width="84" height="82" viewBox="0 0 84 82" fill="none" xmlns="http://www.w3.org/2000/svg">
<g clip-path="url(#clip0_777_3828)">
<ellipse cx="26.4555" cy="14.1089" rx="8.94119" ry="8.94119" transform="rotate(150 26.4555 14.1089)" fill="#0F172A"/>
<path d="M77.7077 32.9165C78.1135 33.6196 77.8727 34.5185 77.1697 34.9244C76.4667 35.3302 75.5677 35.0894 75.1619 34.3864L73.9155 32.2276C74.3062 32.9043 74.0743 33.7696 73.3976 34.1603C72.7216 34.5507 71.8571 34.3197 71.4658 33.6442L67.2626 26.3877L67.2504 26.3948C66.4612 25.0278 65.5678 23.7362 64.5822 22.5291L67.4405 27.4798C67.8312 28.1566 67.5994 29.022 66.9226 29.4127C66.2466 29.803 65.3822 29.5721 64.9908 28.8967L61.2286 22.4038C61.0525 21.938 60.9017 21.4503 60.7504 20.9612C60.2937 19.4842 59.8328 17.9939 58.6592 17.0539C58.6163 17.0196 58.5736 16.9858 58.5312 16.9524C58.2751 16.7759 58.0162 16.6036 57.7544 16.4353L63.5898 6.42793C69.1921 9.93209 73.9116 14.7791 77.2761 20.6065L80.1912 25.6556C80.5836 26.3352 80.3507 27.2042 79.6711 27.5965C78.9916 27.9888 78.1226 27.756 77.7303 27.0764L79.4695 30.089C79.8754 30.792 79.6346 31.6909 78.9316 32.0968C78.2286 32.5027 77.3296 32.2618 76.9238 31.5588L77.7077 32.9165Z" fill="#2F89FC"/>
<path d="M61.3887 5.14506L55.5532 15.1527C53.6532 14.154 51.6345 13.3605 49.5283 12.7962C45.7454 11.7825 41.8372 11.5502 38.0306 12.0693C37.8002 10.7457 37.3373 9.43931 36.6265 8.20806C34.8234 5.08503 31.804 3.10204 28.5121 2.51197C36.1894 -0.174117 44.5561 -0.521179 52.5246 1.61396C55.6328 2.44683 58.6048 3.63707 61.3887 5.14506Z" fill="#2F89FC"/>
<path d="M16.2601 19.9666C16.9709 21.1978 17.8709 22.2519 18.902 23.1132C16.5491 26.1503 14.7962 29.6511 13.7826 33.434C11.7791 40.9109 12.828 48.8774 16.6983 55.581L6.67261 61.3694C1.26711 52.0068 -0.197716 40.8803 2.60038 30.4377C4.73552 22.4692 9.21941 15.397 15.3843 10.0913C14.2494 13.2372 14.457 16.8436 16.2601 19.9666Z" fill="#2F89FC"/>
<path d="M17.6223 55.0205L17.6213 55.0189L17.597 54.9769L17.0567 54.0429L17.044 54.0502L13.3813 47.7269C12.6913 46.5358 11.1669 46.1285 9.97478 46.8167C9.87647 46.8735 9.78349 46.9359 9.69601 47.0034L9.686 46.9861C8.98186 45.7665 7.42234 45.3486 6.20272 46.0527C5.2641 46.5946 4.80035 47.6432 4.95743 48.6535C4.7809 48.7086 4.60768 48.784 4.44082 48.8803C3.2212 49.5845 2.80333 51.144 3.50748 52.3636L4.00779 53.2302C3.90373 53.2727 3.80131 53.3228 3.70123 53.3806C3.43479 53.5344 3.11622 53.8315 2.90673 54.0424C2.78526 54.1646 2.66214 54.2969 2.55548 54.4241C2.46773 54.5287 2.32748 54.7035 2.23465 54.8953L2.03593 55.3058L2.19166 55.7346C2.63331 56.9505 3.2498 58.0087 3.87888 58.9928C4.09398 59.3293 4.30553 59.65 4.51332 59.9651C4.93296 60.6013 5.33726 61.2142 5.72445 61.8868L5.72609 61.8896L5.75103 61.9326L6.2918 62.8654L7.22554 62.3263L17.2511 56.538L18.1857 55.9984L17.6469 55.0633L17.6223 55.0205Z" fill="white" stroke="white" stroke-width="2.16026"/>
<path d="M6.74252 46.9885C6.03952 47.3943 5.79866 48.2933 6.20453 48.9963L6.98844 50.354C6.58256 49.651 5.68363 49.4102 4.98063 49.816C4.27763 50.2219 4.03676 51.1208 4.44264 51.8238L6.18192 54.8364C5.78957 54.1568 4.92061 53.924 4.24104 54.3163C3.56147 54.7087 3.32864 55.5776 3.72099 56.2572L6.63612 61.3064C10.2039 67.4859 15.2955 72.563 21.3476 76.1054L27.1791 66.1047C26.5655 65.745 25.9658 65.3633 25.381 64.9604C25.3386 64.9271 25.2958 64.8932 25.253 64.8589C24.0794 63.9189 23.6185 62.4287 23.1618 60.9516C23.0105 60.4625 22.8597 59.9748 22.6836 59.509L18.9214 53.0161C18.53 52.3407 17.6656 52.1098 16.9896 52.5001C16.3128 52.8909 16.0809 53.7562 16.4717 54.433L19.33 59.3837C18.3444 58.1766 17.451 56.885 16.6618 55.518L16.6496 55.5251L12.4463 48.2686C12.0551 47.5931 11.1906 47.3622 10.5146 47.7525C9.83786 48.1432 9.606 49.0085 9.99671 49.6852L8.75033 47.5265C8.34445 46.8235 7.44553 46.5826 6.74252 46.9885Z" fill="#0F172A"/>
<path d="M29.4331 67.2968L23.5865 77.3235C26.0598 78.5705 28.6717 79.5711 31.3876 80.2989C39.3561 82.434 47.7228 82.0869 55.4 79.4008C52.1082 78.8108 49.0888 76.8278 47.2857 73.7048C46.5749 72.4735 46.112 71.1671 45.8816 69.8435C42.075 70.3626 38.1668 70.1303 34.3839 69.1167C32.6701 68.6574 31.0142 68.0465 29.4331 67.2968Z" fill="#0F172A"/>
<path d="M65.0102 58.7996C66.0413 59.6609 66.9412 60.715 67.6521 61.9462C69.4552 65.0693 69.6628 68.6756 68.5279 71.8215C74.6928 66.5158 79.1767 59.4436 81.3118 51.4751C83.4892 43.3491 83.0852 34.8089 80.2517 27.0081C80.1321 27.2554 79.9395 27.4706 79.6837 27.6183C79.0041 28.0107 78.1351 27.7779 77.7428 27.0983L79.4821 30.1108C79.888 30.8138 79.6471 31.7127 78.9441 32.1186C78.2411 32.5245 77.3422 32.2836 76.9363 31.5806L77.7202 32.9384C78.1261 33.6414 77.8852 34.5403 77.1822 34.9462C76.4792 35.3521 75.5803 35.1112 75.1744 34.4082L73.928 32.2494C74.3187 32.9261 74.0869 33.7915 73.4101 34.1822C72.7341 34.5725 71.8697 34.3415 71.4784 33.666L67.2751 26.4096L67.2629 26.4166C67.2547 26.4025 67.2466 26.3883 67.2384 26.3742C67.2324 26.3638 67.2264 26.3533 67.2203 26.3429L67.2139 26.3318C71.0842 33.0354 72.133 41.0019 70.1296 48.4789C69.116 52.2618 67.3631 55.7625 65.0102 58.7996Z" fill="#0F172A"/>
<mask id="path-5-outside-1_777_3828" maskUnits="userSpaceOnUse" x="63.116" y="16.2335" width="24.5885" height="24.5885" fill="black">
<rect fill="white" x="63.116" y="16.2335" width="24.5885" height="24.5885"/>
<path d="M77.1824 34.9459C77.8854 34.5401 78.1263 33.6411 77.7204 32.9381L76.9365 31.5804C77.3424 32.2834 78.2413 32.5243 78.9443 32.1184C79.6473 31.7125 79.8882 30.8136 79.4823 30.1106L77.743 27.098C78.1354 27.7776 79.0043 28.0104 79.6839 27.6181C80.5535 27.8511 80.83 26.6198 80.9497 26.3725C80.1474 24.1638 78.4527 22.6496 77.2643 20.5856C77.2561 20.5715 77.2479 20.5574 77.2397 20.5433L67.2141 26.3315C67.2223 26.3457 67.2305 26.3598 67.2386 26.374C67.2468 26.3881 67.255 26.4022 67.2631 26.4164L67.2754 26.4093L71.4786 33.6658C71.8699 34.3413 72.7343 34.5723 73.4104 34.1819C74.0871 33.7912 74.319 32.9259 73.9282 32.2492L75.1746 34.408C75.5805 35.111 76.4794 35.3518 77.1824 34.9459Z"/>
</mask>
<path d="M77.1824 34.9459C77.8854 34.5401 78.1263 33.6411 77.7204 32.9381L76.9365 31.5804C77.3424 32.2834 78.2413 32.5243 78.9443 32.1184C79.6473 31.7125 79.8882 30.8136 79.4823 30.1106L77.743 27.098C78.1354 27.7776 79.0043 28.0104 79.6839 27.6181C80.5535 27.8511 80.83 26.6198 80.9497 26.3725C80.1474 24.1638 78.4527 22.6496 77.2643 20.5856C77.2561 20.5715 77.2479 20.5574 77.2397 20.5433L67.2141 26.3315C67.2223 26.3457 67.2305 26.3598 67.2386 26.374C67.2468 26.3881 67.255 26.4022 67.2631 26.4164L67.2754 26.4093L71.4786 33.6658C71.8699 34.3413 72.7343 34.5723 73.4104 34.1819C74.0871 33.7912 74.319 32.9259 73.9282 32.2492L75.1746 34.408C75.5805 35.111 76.4794 35.3518 77.1824 34.9459Z" fill="white"/>
<path d="M79.6839 27.6181L80.243 25.5314L79.3787 25.2999L78.6038 25.7473L79.6839 27.6181ZM80.9497 26.3725L82.8942 27.3136L83.2916 26.4924L82.9802 25.635L80.9497 26.3725ZM77.2643 20.5856L79.1364 19.5077L79.134 19.5034L77.2643 20.5856ZM77.2397 20.5433L79.1078 19.4583L78.0257 17.5951L76.1596 18.6724L77.2397 20.5433ZM67.2141 26.3315L66.134 24.4607L64.2632 25.5408L65.3433 27.4116L67.2141 26.3315ZM67.2386 26.374L65.3658 27.4507L65.3698 27.4575L67.2386 26.374ZM67.2631 26.4164L65.3923 27.4965L66.4722 29.3669L68.3429 28.2874L67.2631 26.4164ZM67.2754 26.4093L69.1447 25.3265L68.0636 23.4603L66.1956 24.5383L67.2754 26.4093ZM71.4786 33.6658L73.3479 32.583L73.3479 32.583L71.4786 33.6658ZM75.8496 34.0183C75.6589 33.688 75.7721 33.2658 76.1023 33.0751L78.2626 36.8168C79.9988 35.8144 80.5937 33.5943 79.5913 31.858L75.8496 34.0183ZM75.0657 32.6605L75.8496 34.0183L79.5913 31.858L78.8074 30.5003L75.0657 32.6605ZM77.8642 30.2475C78.1944 30.0569 78.6167 30.17 78.8074 30.5003L75.0657 32.6605C76.0681 34.3967 78.2882 34.9916 80.0245 33.9892L77.8642 30.2475ZM77.6115 31.1907C77.4208 30.8605 77.534 30.4382 77.8642 30.2475L80.0245 33.9892C81.7607 32.9868 82.3556 30.7667 81.3532 29.0304L77.6115 31.1907ZM75.8722 28.1782L77.6115 31.1907L81.3532 29.0304L79.6139 26.0179L75.8722 28.1782ZM78.6038 25.7473C78.9574 25.5431 79.4097 25.6642 79.6139 26.0179L75.8722 28.1782C76.8611 29.891 79.0512 30.4778 80.764 29.4889L78.6038 25.7473ZM79.0052 25.4314C78.9333 25.58 78.8782 25.736 78.8668 25.7674C78.8397 25.8418 78.8264 25.8794 78.8073 25.9291C78.7695 26.0275 78.754 26.05 78.7642 26.0335C78.7665 26.0299 78.8762 25.8445 79.1527 25.6851C79.3033 25.5982 79.4905 25.5273 79.7041 25.4994C79.9173 25.4717 80.103 25.4939 80.243 25.5314L79.1248 29.7047C79.8918 29.9103 80.6617 29.8022 81.3108 29.428C81.8874 29.0955 82.2368 28.6305 82.4318 28.3172C82.6349 27.9912 82.7653 27.674 82.8401 27.4793C82.8774 27.3824 82.9122 27.2851 82.9265 27.2457C82.9565 27.1633 82.9362 27.2267 82.8942 27.3136L79.0052 25.4314ZM75.3922 21.6635C76.0667 22.835 76.9117 23.8907 77.5127 24.7063C78.1586 25.5828 78.6283 26.309 78.9192 27.11L82.9802 25.635C82.4689 24.2273 81.69 23.092 80.9909 22.1432C80.2468 21.1336 79.6503 20.4002 79.1364 19.5077L75.3922 21.6635ZM75.3717 21.6282C75.3793 21.6414 75.387 21.6546 75.3947 21.6678L79.134 19.5034C79.1252 19.4884 79.1165 19.4734 79.1078 19.4583L75.3717 21.6282ZM68.2943 28.2024L78.3199 22.4141L76.1596 18.6724L66.134 24.4607L68.2943 28.2024ZM69.1114 25.2973C69.1025 25.2818 69.0937 25.2664 69.085 25.2514L65.3433 27.4116C65.351 27.4249 65.3584 27.4379 65.3658 27.4507L69.1114 25.2973ZM69.134 25.3363C69.1253 25.3212 69.1164 25.3059 69.1075 25.2904L65.3698 27.4575C65.3772 27.4703 65.3847 27.4833 65.3923 27.4965L69.134 25.3363ZM66.1956 24.5383L66.1834 24.5453L68.3429 28.2874L68.3551 28.2804L66.1956 24.5383ZM73.3479 32.583L69.1447 25.3265L65.4061 27.4921L69.6093 34.7486L73.3479 32.583ZM72.3302 32.3111C72.6864 32.1055 73.1418 32.2272 73.3479 32.583L69.6093 34.7486C70.598 36.4554 72.7822 37.039 74.4905 36.0528L72.3302 32.3111ZM72.0574 33.3293C71.8516 32.9728 71.9737 32.5169 72.3302 32.3111L74.4905 36.0528C76.2005 35.0655 76.7863 32.879 75.7991 31.169L72.0574 33.3293ZM77.0455 33.3278L75.7991 31.169L72.0574 33.3293L73.3038 35.4881L77.0455 33.3278ZM76.1023 33.0751C76.4325 32.8845 76.8548 32.9976 77.0455 33.3278L73.3038 35.4881C74.3062 37.2243 76.5263 37.8192 78.2626 36.8168L76.1023 33.0751Z" fill="white" mask="url(#path-5-outside-1_777_3828)"/>
<path d="M57.7669 16.4567C58.0286 16.6249 58.2876 16.7973 58.5437 16.9737C58.5861 17.0071 58.6288 17.0409 58.6716 17.0753C59.8452 18.0152 60.3061 19.5055 60.7629 20.9825C60.9141 21.4716 61.065 21.9593 61.2411 22.4251L65.0032 28.918C65.3946 29.5934 66.259 29.8243 66.935 29.434C67.6118 29.0433 67.8437 28.1779 67.453 27.5011L64.5946 22.5504C65.5802 23.7575 66.4736 25.0491 67.2628 26.4161L67.275 26.4091L71.4783 33.6655C71.8696 34.341 72.734 34.572 73.41 34.1817C74.0868 33.7909 74.3186 32.9256 73.9279 32.2489L75.1743 34.4077C75.5802 35.1107 76.4791 35.3515 77.1821 34.9457C77.8851 34.5398 78.126 33.6409 77.7201 32.9379L76.9362 31.5801C77.3421 32.2831 78.241 32.524 78.944 32.1181C79.647 31.7122 79.8879 30.8133 79.482 30.1103L77.7427 27.0978C78.1351 27.7773 79.004 28.0102 79.6836 27.6178C80.3632 27.2255 80.596 26.3565 80.2036 25.6769L77.2885 20.6278C74.1354 15.1665 69.7922 10.5663 64.6476 7.12552L61.1528 10.6499L57.7669 16.4567Z" fill="#2F89FC"/>
<ellipse cx="57.4688" cy="67.8253" rx="9.04361" ry="9.04361" transform="rotate(-30 57.4688 67.8253)" fill="#2F89FC"/>
</g>
<defs>
<clipPath id="clip0_777_3828">
<rect width="83" height="82" fill="white" transform="translate(0.5)"/>
</clipPath>
</defs>
</svg>
